<svg xmlns="http://www.w3.org/2000/svg" viewBox="0 0 1200 630" role="img" aria-labelledby="title desc">
  <title id="title">Palmeiras Agenda social card</title>
  <desc id="desc">Social preview with the Campo marcado application identity.</desc>
  <defs>
    <linearGradient id="bg" x1="0" y1="0" x2="1200" y2="630" gradientUnits="userSpaceOnUse">
      <stop offset="0" stop-color="#043522"/>
      <stop offset=".6" stop-color="#075c3b"/>
      <stop offset="1" stop-color="#10231a"/>
    </linearGradient>
  </defs>
  <rect width="1200" height="630" fill="url(#bg)"/>
  <g opacity=".12" stroke="#fffdf3" stroke-width="1">
    <path d="M0 90h1200M0 180h1200M0 270h1200M0 360h1200M0 450h1200M0 540h1200"/>
    <path d="M120 0v630M240 0v630M360 0v630M480 0v630M600 0v630M720 0v630M840 0v630M960 0v630M1080 0v630"/>
    <circle cx="600" cy="315" r="96" fill="none"/>
    <path d="M600 0v630"/>
  </g>
  <g transform="translate(82 118) scale(2.55)">
    <g fill="none" stroke="#fffdf3" stroke-linecap="round" stroke-linejoin="round">
      <path d="M40 20H22a8 8 0 0 0-8 8v80a8 8 0 0 0 8 8h84a8 8 0 0 0 8-8V28a8 8 0 0 0-8-8H88M56 20h16" stroke-width="5"/>
      <path d="M22 68h84" stroke-width="4"/>
      <circle cx="64" cy="68" r="14" stroke-width="4"/>
    </g>
    <circle cx="64" cy="68" r="2.6" fill="#fffdf3"/>
    <g stroke="#c99a3d" stroke-width="6" stroke-linecap="round"><path d="M48 10v18M80 10v18"/></g>
  </g>
  <g transform="translate(438 178)">
    <text x="0" y="76" font-family="DM Sans, Arial, sans-serif" font-size="80" font-weight="900" letter-spacing="-1.6" fill="#fffdf3">Palmeiras Agenda</text>
    <path d="M4 116h520" stroke="#c99a3d" stroke-width="8" stroke-linecap="round"/>
    <text x="0" y="174" font-family="DM Sans, Arial, sans-serif" font-size="30" font-weight="800" letter-spacing="4.4" fill="#e7f1e9">JOGOS  DESEMPENHO  CALENDÁRIO</text>
    <text x="0" y="244" font-family="DM Sans, Arial, sans-serif" font-size="25" font-weight="600" fill="#dce9df">A agenda completa do Verdão.</text>
  </g>
</svg>
