<svg xmlns="http://www.w3.org/2000/svg" viewBox="0 0 548 144" role="img" aria-labelledby="title desc">
  <title id="title">Palmeiras Agenda horizontal lockup</title>
  <desc id="desc">Campo marcado com o nome Palmeiras Agenda e a assinatura do produto.</desc>
  <g transform="translate(4 4)">
    <g fill="none" stroke="#043522" stroke-linecap="round" stroke-linejoin="round">
      <path d="M40 20H22a8 8 0 0 0-8 8v80a8 8 0 0 0 8 8h84a8 8 0 0 0 8-8V28a8 8 0 0 0-8-8H88M56 20h16" stroke-width="5"/>
      <path d="M22 68h84" stroke-width="4"/>
      <circle cx="64" cy="68" r="14" stroke-width="4"/>
    </g>
    <circle cx="64" cy="68" r="2.6" fill="#043522"/>
    <g stroke="#c99a3d" stroke-width="6" stroke-linecap="round"><path d="M48 10v18M80 10v18"/></g>
  </g>
  <g transform="translate(154 28)">
    <text x="0" y="37" font-family="DM Sans, Arial, sans-serif" font-size="42" font-weight="900" letter-spacing="-.8" fill="#043522">Palmeiras Agenda</text>
    <path d="M2 58h286" stroke="#c99a3d" stroke-width="4" stroke-linecap="round"/>
    <text x="0" y="88" font-family="DM Sans, Arial, sans-serif" font-size="17" font-weight="800" letter-spacing="2.4" fill="#075c3b">JOGOS  DESEMPENHO  CALENDÁRIO</text>
  </g>
</svg>
