<svg xmlns="http://www.w3.org/2000/svg" viewBox="0 0 120 120" role="img" aria-labelledby="title desc">
  <title id="title">Palmeiras Agenda mark</title>
  <desc id="desc">Original Palmeiras Agenda logo combining a calendar page, pitch lines, and a PA monogram.</desc>
  <defs>
    <linearGradient id="field" x1="18" y1="12" x2="102" y2="112" gradientUnits="userSpaceOnUse">
      <stop offset="0" stop-color="#0a7a4a"/>
      <stop offset=".56" stop-color="#075c3b"/>
      <stop offset="1" stop-color="#043522"/>
    </linearGradient>
    <linearGradient id="paper" x1="34" y1="30" x2="86" y2="88" gradientUnits="userSpaceOnUse">
      <stop offset="0" stop-color="#fffdf3"/>
      <stop offset="1" stop-color="#e7f1e9"/>
    </linearGradient>
    <filter id="shadow" x="-20%" y="-20%" width="140%" height="150%">
      <feDropShadow dx="0" dy="10" stdDeviation="8" flood-color="#02170e" flood-opacity=".28"/>
    </filter>
  </defs>
  <path d="M20 87V33c0-9 7-16 16-16h48c9 0 16 7 16 16v54c0 9-7 16-16 16H36c-9 0-16-7-16-16Z" fill="url(#field)"/>
  <path d="M24 87V33c0-7 5-12 12-12h48c7 0 12 5 12 12v54c0 7-5 12-12 12H36c-7 0-12-5-12-12Z" fill="none" stroke="#c99a3d" stroke-width="4"/>
  <path d="M34 36c0-5 4-9 9-9h34c5 0 9 4 9 9v48c0 5-4 9-9 9H43c-5 0-9-4-9-9V36Z" fill="url(#paper)" filter="url(#shadow)"/>
  <path d="M34 41h52v-5c0-5-4-9-9-9H43c-5 0-9 4-9 9v5Z" fill="#c99a3d"/>
  <path d="M46 22v13M74 22v13" stroke="#fffdf3" stroke-width="5" stroke-linecap="round"/>
  <path d="M44 53h32M44 65h32M44 77h32M54 47v38M66 47v38" stroke="#0a7a4a" stroke-width="2" stroke-linecap="round" opacity=".36"/>
  <path d="M43 65h34M60 47v38" stroke="#075c3b" stroke-width="2.7" stroke-linecap="round" opacity=".42"/>
  <circle cx="60" cy="65" r="12" fill="none" stroke="#075c3b" stroke-width="2.7" opacity=".52"/>
  <text x="60" y="72" text-anchor="middle" font-family="DM Sans, Arial, sans-serif" font-size="24" font-weight="900" letter-spacing="-1" fill="#043522">PA</text>
</svg>
